<svg id="Ebene_1" data-name="Ebene 1" xmlns="http://www.w3.org/2000/svg" width="16" height="16" viewBox="0 0 16 16"><defs><style>.cls-1{fill:#4d4d4d;stroke:#fff;stroke-miterlimit:10;}.cls-2{fill:#6fc32e;}.cls-3{fill:#fff;}</style></defs><title>import</title><path class="cls-1" d="M15.8,13.53h0v0c0,1.29-3.39,2.34-7.58,2.34S.64,14.85.64,13.56v0h0V11.17c0-1.28,3.42-2.31,7.58-2.31s7.54,1,7.58,2.31v2.36Z"/><path class="cls-1" d="M15.8,9.77h0v0c0,1.29-3.39,2.34-7.58,2.34S.64,11.09.64,9.8v0h0V7.41C.69,6.13,4.06,5.1,8.22,5.1s7.54,1,7.58,2.31V9.77Z"/><path class="cls-1" d="M15.8,6.22h0v0c0,1.29-3.39,2.34-7.58,2.34S.64,7.54.64,6.25v0h0V3.86c0-1.28,3.42-2.31,7.58-2.31s7.54,1,7.58,2.31V6.22Z"/><ellipse class="cls-1" cx="8.22" cy="2.76" rx="7.58" ry="2.34"/><path class="cls-2" d="M7.23,8.32A.42.42,0,0,1,7,8.25a.48.48,0,0,1-.26-.43V5.72l-5.63,0a.47.47,0,0,1-.35-.15.5.5,0,0,1-.14-.35V3.45A.51.51,0,0,1,1.13,3L6.75,3V.9A.54.54,0,0,1,7,.46.53.53,0,0,1,7.26.4a.5.5,0,0,1,.27.07L13.09,4a.47.47,0,0,1,.23.43.49.49,0,0,1-.24.42L7.49,8.24A.5.5,0,0,1,7.23,8.32Z"/><path class="cls-3" d="M7.26.9l5.56,3.49L7.23,7.82V5.22l-6.12,0V3.46l6.12,0V.9m0-1A1,1,0,0,0,6.78,0a1,1,0,0,0-.52.87V2.48l-5.12,0h0a1,1,0,0,0-1,1V5.18a1,1,0,0,0,.28.71,1,1,0,0,0,.71.3l5.13,0V7.81a1,1,0,0,0,.51.88,1,1,0,0,0,.49.13,1,1,0,0,0,.53-.15l5.59-3.42a1,1,0,0,0,.47-.85,1,1,0,0,0-.46-.85L7.8.05A1,1,0,0,0,7.26-.1Z"/></svg>